<svg width="31" height="32" viewBox="0 0 31 32" fill="none" xmlns="http://www.w3.org/2000/svg">
<g clip-path="url(#clip0)">
<path d="M15.9418 19.8C15.9418 17.417 14.8083 15.6556 12.4666 14.9954C14.1752 14.1818 15.0662 12.949 15.0662 11.0316C15.0662 7.25083 12.2397 6.32886 8.97861 6.32886H0V25.3112H9.23005C12.691 25.3112 15.9418 23.6568 15.9418 19.8ZM4.18563 9.5693H8.11337C9.62334 9.5693 10.9824 9.99225 10.9824 11.7382C10.9824 13.35 9.92508 13.9986 8.42929 13.9986H4.18563V9.5693ZM4.18434 22.0875V16.86H8.7465C10.5892 16.86 11.7548 17.6259 11.7548 19.5705C11.7548 21.4879 10.3635 22.0875 8.66011 22.0875H4.18434Z" fill="black"/>
<path d="M24.2369 25.671C27.5302 25.671 29.663 24.1919 30.6895 21.0482H27.3471C26.9874 22.2216 25.5045 22.8419 24.3543 22.8419C22.1351 22.8419 20.9694 21.5459 20.9694 19.3435H30.9151C31.2297 14.9361 28.7746 11.1799 24.2356 11.1799C20.0332 11.1799 17.1809 14.3288 17.1809 18.4538C17.1809 22.7348 19.8836 25.671 24.2369 25.671ZM24.1183 14.0322C26.0203 14.0322 26.9771 15.1463 27.1369 16.9683H20.9745C21.0996 15.1618 22.3027 14.0322 24.1183 14.0322Z" fill="black"/>
<path d="M20.2021 7.32562H27.9235V9.19537H20.2021V7.32562Z" fill="black"/>
</g>
<defs>
<clipPath id="clip0">
<rect width="30.9474" height="30.9474" fill="white" transform="translate(0 0.526245)"/>
</clipPath>
</defs>
</svg>
