<svg width="25" height="25" viewBox="0 0 25 25" fill="none" xmlns="http://www.w3.org/2000/svg">
<g clip-path="url(#clip0)">
<path d="M24.9769 7.59772C24.9195 6.29594 24.709 5.40098 24.4074 4.62548C24.0964 3.80231 23.6177 3.06533 22.9907 2.45267C22.378 1.83048 21.6362 1.34701 20.8226 1.04078C20.0426 0.739215 19.1523 0.528701 17.8505 0.471306C16.539 0.409049 16.1227 0.394653 12.7963 0.394653C9.47 0.394653 9.05365 0.409049 7.74701 0.466445C6.44523 0.52384 5.55027 0.734541 4.77496 1.03591C3.9516 1.34701 3.21462 1.82562 2.60196 2.45267C1.97977 3.06533 1.49649 3.80717 1.19007 4.62081C0.888506 5.40098 0.677993 6.29108 0.620597 7.59286C0.558341 8.90436 0.543945 9.32071 0.543945 12.647C0.543945 15.9734 0.558341 16.3897 0.615737 17.6964C0.673132 18.9982 0.883832 19.8931 1.18539 20.6686C1.49649 21.4918 1.97977 22.2288 2.60196 22.8414C3.21462 23.4636 3.95646 23.9471 4.7701 24.2533C5.55027 24.5549 6.44037 24.7654 7.74233 24.8228C9.04878 24.8804 9.46532 24.8946 12.7917 24.8946C16.118 24.8946 16.5343 24.8804 17.841 24.8228C19.1428 24.7654 20.0377 24.5549 20.813 24.2533C22.4595 23.6167 23.7613 22.3149 24.3979 20.6686C24.6993 19.8884 24.91 18.9982 24.9674 17.6964C25.0248 16.3897 25.0392 15.9734 25.0392 12.647C25.0392 9.32071 25.0343 8.90436 24.9769 7.59772ZM22.7706 17.6007C22.7179 18.7972 22.5169 19.4433 22.3494 19.874C21.9378 20.9414 21.0907 21.7885 20.0233 22.2002C19.5926 22.3677 18.9418 22.5686 17.7499 22.6212C16.4577 22.6788 16.0701 22.693 12.8012 22.693C9.53225 22.693 9.13983 22.6788 7.85226 22.6212C6.65574 22.5686 6.00962 22.3677 5.57887 22.2002C5.04773 22.0039 4.56426 21.6928 4.17184 21.2859C3.76502 20.8887 3.45392 20.41 3.25762 19.8789C3.09011 19.4482 2.88913 18.7972 2.83659 17.6055C2.77901 16.3133 2.7648 15.9255 2.7648 12.6566C2.7648 9.38764 2.77901 8.99522 2.83659 7.70784C2.88913 6.51131 3.09011 5.86519 3.25762 5.43444C3.45392 4.90311 3.76502 4.41983 4.1767 4.02722C4.57379 3.6204 5.0524 3.30931 5.58373 3.11319C6.01448 2.94568 6.66546 2.7447 7.85712 2.69198C9.14937 2.63458 9.53712 2.62019 12.8059 2.62019C16.0797 2.62019 16.4672 2.63458 17.7548 2.69198C18.9513 2.7447 19.5974 2.94568 20.0282 3.11319C20.5593 3.30931 21.0428 3.6204 21.4352 4.02722C21.842 4.4245 22.1531 4.90311 22.3494 5.43444C22.5169 5.86519 22.7179 6.51599 22.7706 7.70784C22.828 9.00008 22.8424 9.38764 22.8424 12.6566C22.8424 15.9255 22.828 16.3084 22.7706 17.6007Z" fill="black"/>
<path d="M12.7954 6.35333C9.32083 6.35333 6.50171 9.17227 6.50171 12.647C6.50171 16.1218 9.32083 18.9408 12.7954 18.9408C16.2702 18.9408 19.0891 16.1218 19.0891 12.647C19.0891 9.17227 16.2702 6.35333 12.7954 6.35333ZM12.7954 16.7296C10.5413 16.7296 8.71284 14.9014 8.71284 12.647C8.71284 10.3927 10.5413 8.56447 12.7954 8.56447C15.0497 8.56447 16.878 10.3927 16.878 12.647C16.878 14.9014 15.0497 16.7296 12.7954 16.7296Z" fill="black"/>
<path d="M20.8074 6.10449C20.8074 6.91588 20.1495 7.57378 19.3379 7.57378C18.5266 7.57378 17.8687 6.91588 17.8687 6.10449C17.8687 5.29291 18.5266 4.63519 19.3379 4.63519C20.1495 4.63519 20.8074 5.29291 20.8074 6.10449Z" fill="black"/>
</g>
<defs>
<clipPath id="clip0">
<rect width="24.5" height="24.5" fill="white" transform="translate(0.5 0.394653)"/>
</clipPath>
</defs>
</svg>
