<svg width="26" height="25" viewBox="0 0 26 25" fill="none" xmlns="http://www.w3.org/2000/svg">
<g clip-path="url(#clip0)">
<path d="M23.0236 0.394653H3.42363C2.07613 0.394653 0.973633 1.49715 0.973633 2.84465V22.4447C0.973633 23.7922 2.07613 24.8947 3.42363 24.8947H23.0236C24.3711 24.8947 25.4736 23.7922 25.4736 22.4447V2.84465C25.4736 1.49715 24.3711 0.394653 23.0236 0.394653ZM8.32363 21.2197H4.64863V10.1947H8.32363V21.2197ZM6.48613 8.11215C5.26113 8.11215 4.28113 7.13215 4.28113 5.90715C4.28113 4.68215 5.26113 3.70215 6.48613 3.70215C7.71113 3.70215 8.69113 4.68215 8.69113 5.90715C8.69113 7.13215 7.71113 8.11215 6.48613 8.11215ZM21.7986 21.2197H18.1236V14.7272C18.1236 13.7472 17.2661 12.8897 16.2861 12.8897C15.3061 12.8897 14.4486 13.7472 14.4486 14.7272V21.2197H10.7736V10.1947H14.4486V11.6647C15.0611 10.6847 16.4086 9.94965 17.5111 9.94965C19.8386 9.94965 21.7986 11.9097 21.7986 14.2372V21.2197Z" fill="black"/>
</g>
<defs>
<clipPath id="clip0">
<rect width="24.5" height="24.5" fill="white" transform="translate(0.973633 0.394653)"/>
</clipPath>
</defs>
</svg>
